# xmcd
#
# Track frame offsets:
#	150
#	6375
#	20174
#	38324
#	46500
#	72375
#	94650
#	109425
#	123075
#	132525
#	145875
#	178350
#	187502
#	193952
#	203777
#	209552
#	225002
#	233852
#	249752
#	254627
#	260552
#	273077
#
# Disc length: 3837 seconds
#
# Revision: 0
# Processed by: cddbd v1.5.2PL0 Copyright (c) Steve Scherf et al.
# Submitted via: EasyCDDAExtractor 2010.6.0.0
#
DISCID=380efb16
DTITLE=Various Artist - Музыка русского неба: русские традиционные колокольны
DTITLE=е звоны
DYEAR=2001
DGENRE=
TTITLE0=Праздничный звон «во вся тяжкая»
TTITLE1=Будничный звон
TTITLE2=Трезвон к литургии
TTITLE3=Звон к утрене
TTITLE4=Водосвятный звон
TTITLE5=Встречный звон
TTITLE6=Пасхальный звон
TTITLE7=Рождественский звон
TTITLE8=Рыбинский соборный звон
TTITLE9=Ярославский соборный звон
TTITLE10=Суздальский соборный звон
TTITLE11=Праздничный звон Псково-Печерского монастыря
TTITLE12=Московский звон Псково-Печерского монастыря
TTITLE13=Софийский звон
TTITLE14=Покровский праздничный звон
TTITLE15=Звон на Чин о панагии московского Данилова монастыря
TTITLE16=Егорьевский звон
TTITLE17=Калязинский звон
TTITLE18=Звон в ростовской традиции
TTITLE19=Звон на основе традиции Троице-Сергиевой Лавры
TTITLE20=Праздничный звон (посвещается игумену Михею)
TTITLE21=Вариации на звон игумена Михея
EXTD=
EXTT0=
EXTT1=
EXTT2=
EXTT3=
EXTT4=
EXTT5=
EXTT6=
EXTT7=
EXTT8=
EXTT9=
EXTT10=
EXTT11=
EXTT12=
EXTT13=
EXTT14=
EXTT15=
EXTT16=
EXTT17=
EXTT18=
EXTT19=
EXTT20=
EXTT21=
PLAYORDER=
